<svg width="180" height="45" viewBox="0 0 180 45" fill="none" xmlns="http://www.w3.org/2000/svg">
<g clip-path="url(#clip0_1248_12464)">
<path d="M1.41949 1.49874C0.476662 2.49823 0.00524902 3.98775 0.00524902 5.96686V21.894C0.00524902 22.4005 0.415836 22.8111 0.922311 22.8111H1.06509C1.57156 22.8111 1.98214 22.4005 1.98214 21.894V9.67798H7.81797C8.23618 9.67798 8.5752 9.33896 8.5752 8.92075V8.81832C8.5752 8.40011 8.23618 8.06109 7.81797 8.06109H1.98214V6.02579C1.98214 4.51706 2.281 3.41935 2.87935 2.73331C3.47727 2.0477 4.47607 1.70468 5.87511 1.70468C6.54418 1.70468 7.09649 1.75875 7.53263 1.86627C7.58883 1.87999 7.6429 1.89393 7.69547 1.90766C8.15635 2.02805 8.6248 1.74249 8.73695 1.2757L8.74226 1.25478C8.8476 0.815448 8.58297 0.374002 8.14579 0.259945C8.05923 0.237344 7.96651 0.214109 7.86718 0.190664C7.3299 0.0635113 6.63548 -0.000488281 5.78386 -0.000488281C3.8169 -0.000488281 2.36232 0.49947 1.41949 1.49874Z" fill="#4F46E5"/>
<path d="M15.1587 0.35511C14.9863 0.529999 14.9004 0.75114 14.9004 1.0177V21.9799C14.9004 22.2473 14.9863 22.4685 15.1587 22.6427C15.3308 22.8176 15.549 22.9048 15.8126 22.9048C16.076 22.9048 16.2941 22.8176 16.4665 22.6427C16.6386 22.4685 16.725 22.2473 16.725 21.9799V1.0177C16.725 0.75114 16.6386 0.529999 16.4665 0.35511C16.2941 0.180643 16.076 0.0929871 15.8126 0.0929871C15.549 0.0929871 15.3308 0.180643 15.1587 0.35511Z" fill="#4F46E5"/>
<path d="M26.5472 7.75767C25.371 8.46757 24.4486 9.44087 23.7795 10.6776C23.1104 11.9147 22.7759 13.2935 22.7759 14.8143C22.7759 16.3349 23.1104 17.7141 23.7795 18.9508C24.4486 20.1877 25.371 21.156 26.5472 21.8555C27.7228 22.555 29.0306 22.9048 30.4706 22.9048C31.9099 22.9048 33.218 22.555 34.3939 21.8555C35.5695 21.156 36.4925 20.1877 37.1616 18.9508C37.8307 17.7141 38.1652 16.3349 38.1652 14.8143C38.1652 13.2935 37.8307 11.9147 37.1616 10.6776C36.4925 9.44087 35.5695 8.46757 34.3939 7.75767C33.218 7.04822 31.9099 6.69315 30.4706 6.69315C29.0306 6.69315 27.7228 7.04822 26.5472 7.75767ZM27.49 20.3649C26.5974 19.8075 25.8933 19.0421 25.3762 18.0686C24.8592 17.0955 24.6007 16.0109 24.6007 14.8143C24.6007 13.5974 24.8592 12.5027 25.3762 11.5292C25.8933 10.5559 26.5974 9.7907 27.49 9.23283C28.3822 8.67541 29.3757 8.39641 30.4706 8.39641C31.5654 8.39641 32.5638 8.67541 33.4663 9.23283C34.3681 9.7907 35.073 10.5559 35.5801 11.5292C36.0866 12.5027 36.3404 13.5974 36.3404 14.8143C36.3404 16.0309 36.0866 17.1256 35.5801 18.0992C35.073 19.0722 34.3681 19.8328 33.4663 20.3803C32.5638 20.9276 31.5654 21.2013 30.4706 21.2013C29.3757 21.2013 28.3822 20.9227 27.49 20.3649Z" fill="#4F46E5"/>
<path d="M61.7051 7.31072L57.7209 19.5692L53.9191 10.3983C53.7567 10.0077 53.4729 9.81175 53.0675 9.81175C52.6416 9.81175 52.3577 10.0077 52.216 10.3983L48.5967 19.6313L44.5517 7.31072C44.4909 7.12547 44.3844 6.97636 44.2321 6.86292C44.0803 6.75013 43.913 6.69308 43.7305 6.69308C43.4667 6.69308 43.2439 6.78095 43.0614 6.95564C42.8789 7.13072 42.7877 7.35209 42.7877 7.61931C42.7877 7.76357 42.8181 7.89747 42.8789 8.02081L47.6843 22.2251C47.7449 22.4103 47.8615 22.5598 48.0339 22.6728C48.206 22.7861 48.3937 22.8319 48.5967 22.8116C48.7587 22.8116 48.9161 22.7552 49.0679 22.6416C49.2202 22.5288 49.3365 22.39 49.4179 22.2251L52.9761 12.7143L56.9605 22.2251C57.0412 22.4103 57.1529 22.5543 57.2951 22.6572C57.4368 22.7603 57.5992 22.8116 57.7815 22.8116C57.9642 22.8319 58.1363 22.7861 58.2987 22.6728C58.4607 22.5598 58.5925 22.4103 58.6941 22.2251L63.3776 8.02081C63.4382 7.77393 63.4688 7.64022 63.4688 7.61931C63.4688 7.33144 63.3822 7.10521 63.2101 6.94023C63.038 6.77551 62.8198 6.69308 62.5564 6.69308C62.1103 6.69308 61.8267 6.89905 61.7051 7.31072Z" fill="#4F46E5"/>
<path d="M69.2035 0.381944C69.0313 0.55451 68.9452 0.772697 68.9452 1.03588V21.9617C68.9452 22.2255 69.0313 22.4486 69.2035 22.631C69.3758 22.8134 69.594 22.9048 69.8575 22.9048C70.121 22.9048 70.3392 22.8134 70.5114 22.631C70.6837 22.4486 70.7698 22.2255 70.7698 21.9617V19.7414C71.3784 20.6946 72.1735 21.4601 73.1577 22.0378C74.1412 22.6158 75.2102 22.9048 76.366 22.9048C77.7043 22.9048 78.9158 22.5502 80.0003 21.8403C81.0855 21.1306 81.9369 20.1522 82.5553 18.905C83.1736 17.6581 83.4831 16.274 83.4831 14.7535C83.4831 13.2126 83.1736 11.8287 82.5553 10.6015C81.9369 9.37502 81.0803 8.41694 79.9854 7.72731C78.8905 7.03806 77.6739 6.69315 76.3356 6.69315C75.1597 6.69315 74.0745 6.99734 73.0813 7.60565C72.0881 8.21415 71.3176 9.01508 70.7698 10.0085V1.03588C70.7698 0.772697 70.6837 0.55451 70.5114 0.381944C70.3392 0.210013 70.121 0.123413 69.8575 0.123413C69.594 0.123413 69.3758 0.210013 69.2035 0.381944ZM73.3099 20.3649C72.4681 19.8075 71.809 19.0372 71.3325 18.0535C70.8559 17.0703 70.6183 15.9701 70.6183 14.7535C70.6183 13.5366 70.8507 12.4419 71.3176 11.4684C71.7838 10.4951 72.4429 9.74 73.2943 9.2024C74.1458 8.66531 75.1092 8.39642 76.184 8.39642C77.2381 8.39642 78.1861 8.67017 79.0278 9.21762C79.8689 9.76513 80.5273 10.5207 81.0039 11.4838C81.4804 12.4469 81.7194 13.5366 81.7194 14.7535C81.7194 15.95 81.4804 17.0397 81.0039 18.0229C80.5273 19.0066 79.8689 19.7824 79.0278 20.3499C78.1861 20.9177 77.2381 21.2013 76.184 21.2013C75.1092 21.2013 74.1509 20.9227 73.3099 20.3649Z" fill="#4F46E5"/>
<path d="M89.6413 6.95648C89.4691 7.1324 89.3829 7.35462 89.3829 7.62306V21.8818C89.3829 22.1505 89.4691 22.3729 89.6413 22.5482C89.8135 22.724 90.0317 22.8116 90.2952 22.8116C90.5588 22.8116 90.777 22.724 90.9492 22.5482C91.1214 22.3729 91.2075 22.1505 91.2075 21.8818V7.62306C91.2075 7.35462 91.1214 7.1324 90.9492 6.95648C90.777 6.78114 90.5588 6.69308 90.2952 6.69308C90.0317 6.69308 89.8135 6.78114 89.6413 6.95648Z" fill="#4F46E5"/>
<path d="M101.87 7.69319C100.926 8.47328 100.222 9.45629 99.7556 10.6418V7.48393C99.7556 7.21373 99.6689 6.98983 99.4973 6.81307C99.3244 6.6365 99.1062 6.5478 98.8433 6.5478C98.5792 6.5478 98.361 6.6365 98.1894 6.81307C98.0165 6.98983 97.931 7.21373 97.931 7.48393V21.8755C97.931 22.1461 98.0165 22.3699 98.1894 22.5466C98.361 22.7233 98.5792 22.8116 98.8433 22.8116C99.1062 22.8116 99.3244 22.7233 99.4973 22.5466C99.6689 22.3699 99.7556 22.1461 99.7556 21.8755V14.1681C99.7556 13.2115 99.9933 12.2648 100.47 11.3285C100.946 10.3924 101.554 9.628 102.295 9.0351C103.035 8.4422 103.78 8.14565 104.531 8.14565C104.794 8.14565 105.073 8.19758 105.367 8.30176C105.661 8.40607 105.858 8.45761 105.96 8.45761C106.183 8.45761 106.375 8.36936 106.538 8.19253C106.7 8.01596 106.781 7.78196 106.781 7.49021C106.781 7.15798 106.618 6.90832 106.295 6.74127C105.97 6.57525 105.605 6.49179 105.2 6.49179C103.922 6.5127 102.812 6.91317 101.87 7.69319Z" fill="#4F46E5"/>
<path d="M123.762 0.351518C123.59 0.524085 123.504 0.742276 123.504 1.00545V9.91741C122.976 8.96438 122.206 8.18876 121.192 7.59043C120.178 6.99241 119.073 6.69315 117.877 6.69315C116.559 6.69315 115.357 7.04311 114.273 7.74272C113.188 8.44206 112.332 9.41069 111.703 10.6474C111.074 11.8843 110.76 13.2629 110.76 14.7839C110.76 16.325 111.074 17.7141 111.703 18.9508C112.332 20.1877 113.188 21.156 114.273 21.8555C115.357 22.555 116.569 22.9048 117.908 22.9048C119.124 22.9048 120.234 22.5803 121.238 21.9313C122.241 21.2827 122.996 20.4918 123.504 19.5591V21.8994C123.504 22.163 123.59 22.3812 123.762 22.5533C123.935 22.7257 124.153 22.8116 124.416 22.8116C124.68 22.8116 124.897 22.7257 125.07 22.5533C125.242 22.3812 125.329 22.163 125.329 21.8994V1.00545C125.329 0.742276 125.242 0.524085 125.07 0.351518C124.897 0.179376 124.68 0.0929871 124.416 0.0929871C124.153 0.0929871 123.935 0.179376 123.762 0.351518ZM115.246 20.3649C114.405 19.8075 113.746 19.0421 113.269 18.0686C112.793 17.0955 112.554 16.0003 112.554 14.7839C112.554 13.5875 112.793 12.5027 113.269 11.5292C113.746 10.5559 114.405 9.79064 115.246 9.23283C116.088 8.67541 117.036 8.39641 118.09 8.39641C119.144 8.39641 120.092 8.67541 120.934 9.23283C121.775 9.79064 122.434 10.5559 122.91 11.5292C123.387 12.5027 123.625 13.5875 123.625 14.7839C123.625 16.0003 123.387 17.1005 122.91 18.084C122.434 19.0674 121.775 19.8328 120.934 20.3803C120.092 20.9276 119.144 21.2013 118.09 21.2013C117.036 21.2013 116.088 20.9227 115.246 20.3649Z" fill="#4F46E5"/>
<path d="M91.7949 1.79542C91.7949 2.67028 91.0872 3.37955 90.215 3.37955C89.3428 3.37955 88.6351 2.67028 88.6351 1.79542C88.6351 0.920545 89.3428 0.211273 90.215 0.211273C91.0872 0.211273 91.7949 0.920545 91.7949 1.79542Z" fill="#4F46E5"/>
<path d="M137.488 6.97422C139.328 6.97422 140.699 7.55728 141.599 8.72346C142.499 9.86918 142.949 11.3524 142.949 13.1733V21.8582C142.949 22.1241 142.857 22.3492 142.673 22.5333C142.509 22.697 142.294 22.7788 142.028 22.7788C141.762 22.7788 141.538 22.697 141.353 22.5333C141.19 22.3492 141.108 22.1241 141.108 21.8582V13.1733C141.108 11.8435 140.791 10.7694 140.157 9.95102C139.523 9.11214 138.531 8.69277 137.181 8.69277C136.322 8.69277 135.504 8.89737 134.727 9.30652C133.97 9.71572 133.356 10.2681 132.886 10.9637C132.415 11.6389 132.18 12.3754 132.18 13.1733V21.8582C132.18 22.1241 132.088 22.3492 131.904 22.5333C131.741 22.697 131.526 22.7788 131.26 22.7788C130.994 22.7788 130.769 22.697 130.585 22.5333C130.421 22.3492 130.339 22.1241 130.339 21.8582V0.989933C130.339 0.72396 130.421 0.509143 130.585 0.345472C130.769 0.16134 130.994 0.0692749 131.26 0.0692749C131.526 0.0692749 131.741 0.16134 131.904 0.345472C132.088 0.509143 132.18 0.72396 132.18 0.989933V9.98171C132.733 9.10191 133.499 8.38586 134.481 7.83349C135.463 7.2606 136.465 6.97422 137.488 6.97422Z" fill="#4F46E5"/>
<path d="M159.496 7.189C159.762 7.189 159.977 7.28107 160.14 7.46521C160.324 7.62889 160.416 7.84373 160.416 8.10971V16.7638C160.416 18.7688 159.854 20.3135 158.729 21.3979C157.604 22.4617 156.05 22.9936 154.066 22.9936C152.102 22.9936 150.558 22.4617 149.433 21.3979C148.328 20.3135 147.776 18.7688 147.776 16.7638V8.10971C147.776 7.84373 147.858 7.62889 148.022 7.46521C148.206 7.28107 148.431 7.189 148.697 7.189C148.962 7.189 149.177 7.28107 149.341 7.46521C149.525 7.62889 149.617 7.84373 149.617 8.10971V16.7638C149.617 18.2369 150.005 19.3622 150.783 20.1396C151.56 20.8966 152.654 21.2751 154.066 21.2751C155.497 21.2751 156.602 20.8966 157.379 20.1396C158.177 19.3622 158.575 18.2369 158.575 16.7638V8.10971C158.575 7.84373 158.657 7.62889 158.821 7.46521C159.005 7.28107 159.23 7.189 159.496 7.189Z" fill="#4F46E5"/>
<path d="M172.698 6.72871C174.048 6.72871 175.275 7.07654 176.38 7.77213C177.485 8.46772 178.343 9.43952 178.957 10.6875C179.591 11.9151 179.908 13.3063 179.908 14.8611C179.908 16.3956 179.591 17.797 178.957 19.0655C178.343 20.3135 177.485 21.2956 176.38 22.0116C175.296 22.7277 174.079 23.0857 172.729 23.0857C171.563 23.0857 170.479 22.7993 169.477 22.2264C168.495 21.6331 167.698 20.8557 167.084 19.8941V21.9195C167.084 22.1855 166.992 22.4106 166.808 22.5947C166.644 22.7788 166.429 22.8709 166.163 22.8709C165.898 22.8709 165.673 22.7788 165.489 22.5947C165.325 22.4106 165.243 22.1855 165.243 21.9195V1.02063C165.243 0.754663 165.325 0.539844 165.489 0.376173C165.673 0.192041 165.898 0.0999756 166.163 0.0999756C166.429 0.0999756 166.644 0.192041 166.808 0.376173C166.992 0.539844 167.084 0.754663 167.084 1.02063V10.0737C167.636 9.0713 168.413 8.26311 169.416 7.64936C170.418 7.03561 171.512 6.72871 172.698 6.72871ZM172.545 21.3672C173.609 21.3672 174.559 21.0807 175.398 20.5079C176.257 19.935 176.922 19.1576 177.392 18.1755C177.883 17.173 178.129 16.0682 178.129 14.8611C178.129 13.6337 177.883 12.5391 177.392 11.5775C176.922 10.5955 176.257 9.82827 175.398 9.27584C174.559 8.72347 173.609 8.44726 172.545 8.44726C171.461 8.44726 170.489 8.72347 169.631 9.27584C168.771 9.80781 168.106 10.5648 167.636 11.5468C167.166 12.5289 166.931 13.6337 166.931 14.8611C166.931 16.0887 167.166 17.2037 167.636 18.2062C168.127 19.1883 168.792 19.9657 169.631 20.5386C170.489 21.091 171.461 21.3672 172.545 21.3672Z" fill="#4F46E5"/>
<path d="M6.9715 37.5112V33.5347C6.9715 33.0688 6.53886 32.6528 6.07301 32.6528C5.57385 32.6528 5.20781 33.0688 5.20781 33.5347V37.5112C5.19117 38.4597 4.42581 39.2083 3.46078 39.2083C2.5124 39.2083 1.76367 38.4597 1.76367 37.5112V33.5347C1.76367 33.0688 1.38099 32.6528 0.881832 32.6528C0.399321 32.6528 0 33.0688 0 33.5347V37.5112C0 39.408 1.56401 40.972 3.46078 40.972C5.3742 40.972 6.9715 39.408 6.9715 37.5112Z" fill="#6B7280"/>
<path d="M16.6098 32.6695C15.7778 32.6528 15.0624 32.9523 14.5133 33.3184C14.3969 33.4016 14.2637 33.5347 14.1639 33.6511V33.5347C14.1639 33.0521 13.748 32.6695 13.2488 32.6695C12.7663 32.6695 12.3669 33.0521 12.3669 33.5347V40.0902C12.3669 40.5727 12.7663 40.972 13.2488 40.972C13.748 40.972 14.1639 40.5727 14.1639 40.0902V36.9289C14.2471 36.696 14.4468 36.0637 14.8461 35.5313C15.0458 35.2151 15.2953 34.9323 15.6115 34.7326C15.8943 34.5164 16.2271 34.4165 16.6098 34.4165C17.1089 34.4165 17.4916 34.0005 17.4916 33.5347C17.4916 33.0521 17.1089 32.6695 16.6098 32.6695Z" fill="#6B7280"/>
<path d="M21.6754 40.0736C21.6754 40.5561 22.0748 40.972 22.5739 40.972C23.0232 40.972 23.3725 40.6559 23.4557 40.2566C24.088 40.6892 24.8867 40.972 25.7186 40.972C27.9647 40.972 29.7617 39.0753 29.7617 36.829C29.7617 34.5497 27.9647 32.6529 25.7186 32.6529C24.9033 32.6529 24.1046 32.919 23.489 33.3517V30.2236C23.489 29.7411 23.0897 29.3252 22.5739 29.3252C22.0748 29.3252 21.6754 29.7411 21.6754 30.2236V36.8125C21.6754 36.8125 21.6754 36.8125 21.6754 36.829V40.0736ZM24.1546 35.1486C24.5705 34.716 25.1029 34.4664 25.7186 34.4664C26.3175 34.4664 26.8666 34.716 27.2825 35.1486C27.6986 35.5646 27.9481 36.1636 27.9481 36.829C27.9481 37.4613 27.6986 38.0603 27.2825 38.4763C26.8666 38.9089 26.3175 39.1584 25.7186 39.1584C25.1029 39.1584 24.5705 38.9089 24.1546 38.4763C23.7386 38.0603 23.489 37.4613 23.489 36.829C23.489 36.1636 23.7386 35.5646 24.1546 35.1486Z" fill="#6B7280"/>
<path d="M41.6939 33.5513C41.6939 33.0521 41.2946 32.6528 40.8121 32.6528C40.3795 32.6528 40.0467 32.9689 39.9469 33.385C39.3146 32.9357 38.5659 32.6528 37.734 32.6528C36.6026 32.6528 35.6209 33.1354 34.9055 33.9007C34.19 34.6494 33.774 35.6811 33.774 36.829C33.774 37.9605 34.19 38.9921 34.9055 39.7574C35.6209 40.5062 36.6026 40.972 37.734 40.972C38.5659 40.972 39.3146 40.7058 39.9469 40.2566C40.0467 40.6559 40.3795 40.972 40.8121 40.972C41.2946 40.972 41.6939 40.5727 41.6939 40.0902V33.5513ZM39.2813 38.5428C38.882 38.9588 38.3163 39.1917 37.734 39.1917C37.135 39.1917 36.5693 38.9588 36.1866 38.5428C35.7873 38.1102 35.5544 37.5112 35.5544 36.829C35.5544 36.1303 35.7873 35.5313 36.1866 35.1154C36.5693 34.6661 37.135 34.4332 37.734 34.4332C38.3163 34.4332 38.882 34.6661 39.2813 35.1154C39.6807 35.5313 39.9302 36.1303 39.9302 36.829C39.9302 37.5112 39.6807 38.1102 39.2813 38.5428Z" fill="#6B7280"/>
<path d="M50.2524 32.6528C49.6035 32.6528 48.9879 32.8525 48.4887 33.1686C48.339 32.8525 48.0228 32.6528 47.6734 32.6528C47.1743 32.6528 46.7916 33.0521 46.7916 33.5347V40.0902C46.7916 40.5727 47.1743 40.972 47.6734 40.972C48.106 40.972 48.4721 40.6559 48.5552 40.2566C48.5885 40.1901 48.5885 40.1401 48.5885 40.0902V36.1136C48.5885 35.1818 49.3206 34.4332 50.2524 34.4332C51.2008 34.4332 51.9827 35.1818 51.9827 36.1136V40.0902C51.9827 40.5727 52.3988 40.972 52.8646 40.972C53.3471 40.972 53.7298 40.5727 53.7298 40.0902V36.1136C53.7298 34.2335 52.1824 32.6528 50.2524 32.6528Z" fill="#6B7280"/>
<path d="M66.892 32.6695C66.3927 32.6695 65.9939 33.0522 65.9939 33.5846V40.0736C65.9939 40.5727 66.3927 40.972 66.892 40.972C67.408 40.972 67.7907 40.5727 67.7907 40.0736V33.5846C67.7907 33.0522 67.408 32.6695 66.892 32.6695ZM67.7907 30.2236C67.7907 29.7245 67.408 29.3252 66.892 29.3252C66.3927 29.3252 65.9939 29.7245 65.9939 30.2236V30.5731C65.9939 31.0722 66.3927 31.4882 66.892 31.4882C67.408 31.4882 67.7907 31.0722 67.7907 30.5731V30.2236Z" fill="#6B7280"/>
<path d="M76.1141 32.6528C75.4653 32.6528 74.8496 32.8525 74.3504 33.1686C74.2008 32.8525 73.8842 32.6528 73.5352 32.6528C73.036 32.6528 72.6533 33.0521 72.6533 33.5347V40.0902C72.6533 40.5727 73.036 40.972 73.5352 40.972C73.9677 40.972 74.3335 40.6559 74.4171 40.2566C74.4501 40.1901 74.4501 40.1401 74.4501 40.0902V36.1136C74.4501 35.1818 75.1824 34.4332 76.1141 34.4332C77.0627 34.4332 77.8442 35.1818 77.8442 36.1136V40.0902C77.8442 40.5727 78.2605 40.972 78.726 40.972C79.2084 40.972 79.5911 40.5727 79.5911 40.0902V36.1136C79.5911 34.2335 78.0443 32.6528 76.1141 32.6528Z" fill="#6B7280"/>
<path d="M87.6659 32.6529H87.2495V30.2403C87.2495 29.7245 86.8507 29.3252 86.3346 29.3252C85.8186 29.3252 85.4029 29.7245 85.4029 30.2403V32.6529H84.9205C84.4045 32.6529 84.005 33.0522 84.005 33.5679C84.005 34.0671 84.4045 34.4831 84.9205 34.4831H85.4029V39.1251C85.4029 40.1401 86.2349 40.972 87.2495 40.972C87.7656 40.972 88.1651 40.5727 88.1651 40.0569C88.1651 39.5412 87.7656 39.1251 87.2495 39.1251V34.4831H87.6659C88.1651 34.4831 88.5976 34.0671 88.5976 33.5679C88.5976 33.0522 88.1651 32.6529 87.6659 32.6529Z" fill="#6B7280"/>
<path d="M96.3233 40.972C97.5049 40.972 98.4865 40.6226 99.3017 39.8739C99.6843 39.5245 99.5179 39.0254 99.3017 38.7924C99.0854 38.5262 98.403 38.4763 98.054 38.8423C97.6376 39.1584 96.9222 39.3082 96.3233 39.2583C95.7412 39.2083 95.0756 38.9089 94.7259 38.5096C94.4268 38.2267 94.2435 37.7941 94.1607 37.4114H99.4512C99.9174 37.4114 100.267 37.1452 100.317 36.7459C100.333 36.7126 100.333 36.6294 100.333 36.5961C100.333 36.5629 100.333 36.5296 100.333 36.5129C100.2 34.2668 98.4865 32.6528 96.3233 32.6528C94.0441 32.6528 92.2804 34.5496 92.2635 36.8125C92.2804 39.0753 94.0441 40.9554 96.3233 40.972ZM96.3233 34.2335C97.771 34.35 98.6192 35.3316 98.7856 35.9972H94.0771C94.2105 35.315 94.9092 34.3 96.3233 34.2335Z" fill="#6B7280"/>
<path d="M105.098 30.2403V40.0569C105.098 40.5561 105.514 40.972 106.014 40.972C106.529 40.972 106.945 40.5561 106.945 40.0569V30.2403C106.945 29.7411 106.529 29.3252 106.014 29.3252C105.514 29.3252 105.098 29.7411 105.098 30.2403Z" fill="#6B7280"/>
<path d="M111.238 30.2403V40.0569C111.238 40.5561 111.654 40.972 112.153 40.972C112.669 40.972 113.085 40.5561 113.085 40.0569V30.2403C113.085 29.7411 112.669 29.3252 112.153 29.3252C111.654 29.3252 111.238 29.7411 111.238 30.2403Z" fill="#6B7280"/>
<path d="M118.176 32.6695C117.677 32.6695 117.278 33.0522 117.278 33.5846V40.0736C117.278 40.5727 117.677 40.972 118.176 40.972C118.693 40.972 119.075 40.5727 119.075 40.0736V33.5846C119.075 33.0522 118.693 32.6695 118.176 32.6695ZM119.075 30.2236C119.075 29.7245 118.693 29.3252 118.176 29.3252C117.677 29.3252 117.278 29.7245 117.278 30.2236V30.5731C117.278 31.0722 117.677 31.4882 118.176 31.4882C118.693 31.4882 119.075 31.0722 119.075 30.5731V30.2236Z" fill="#6B7280"/>
<path d="M131.375 33.5347C131.375 33.0521 130.993 32.6528 130.494 32.6528C130.06 32.6528 129.695 32.9523 129.612 33.3517C129.013 32.919 128.247 32.6528 127.382 32.6528C126.284 32.6528 125.269 33.1354 124.553 33.8841C123.838 34.6661 123.389 35.6976 123.389 36.8457C123.389 38.0104 123.838 39.042 124.553 39.774C125.269 40.5561 126.284 41.0386 127.382 41.0386C128.197 41.0386 128.962 40.789 129.562 40.373C129.346 41.388 128.464 42.1533 127.382 42.1533C127.033 42.1533 126.716 42.0701 126.434 41.9204C125.968 41.7208 125.452 41.8872 125.235 42.3364C125.003 42.7856 125.202 43.3347 125.635 43.5344C126.151 43.8005 126.766 43.9503 127.382 43.9503C129.595 43.9503 131.375 42.1367 131.375 39.9571V33.5347ZM128.962 38.5594C128.53 39.0087 128.014 39.2416 127.382 39.2416C126.8 39.2416 126.251 39.0087 125.851 38.5594C125.452 38.1768 125.185 37.5445 125.185 36.8457C125.185 36.1802 125.452 35.5479 125.851 35.1486C126.251 34.6827 126.8 34.4332 127.382 34.4332C128.014 34.4332 128.53 34.6827 128.962 35.1486C129.329 35.5479 129.595 36.1802 129.595 36.8457C129.595 37.5445 129.329 38.1768 128.962 38.5594Z" fill="#6B7280"/>
<path d="M140.395 40.972C141.577 40.972 142.559 40.6226 143.374 39.8739C143.756 39.5245 143.59 39.0254 143.374 38.7924C143.158 38.5262 142.476 38.4763 142.126 38.8423C141.71 39.1584 140.994 39.3082 140.395 39.2583C139.813 39.2083 139.148 38.9089 138.798 38.5096C138.499 38.2267 138.316 37.7941 138.233 37.4114H143.523C143.99 37.4114 144.339 37.1452 144.389 36.7459C144.405 36.7126 144.405 36.6294 144.405 36.5961C144.405 36.5629 144.405 36.5296 144.405 36.5129C144.273 34.2668 142.559 32.6528 140.395 32.6528C138.116 32.6528 136.353 34.5496 136.336 36.8125C136.353 39.0753 138.116 40.9554 140.395 40.972ZM140.395 34.2335C141.843 34.35 142.692 35.3316 142.858 35.9972H138.149C138.283 35.315 138.981 34.3 140.395 34.2335Z" fill="#6B7280"/>
<path d="M152.514 32.6528C151.866 32.6528 151.25 32.8525 150.751 33.1686C150.601 32.8525 150.285 32.6528 149.935 32.6528C149.437 32.6528 149.054 33.0521 149.054 33.5347V40.0902C149.054 40.5727 149.437 40.972 149.935 40.972C150.369 40.972 150.734 40.6559 150.817 40.2566C150.851 40.1901 150.851 40.1401 150.851 40.0902V36.1136C150.851 35.1818 151.583 34.4332 152.514 34.4332C153.463 34.4332 154.245 35.1818 154.245 36.1136V40.0902C154.245 40.5727 154.661 40.972 155.127 40.972C155.609 40.972 155.992 40.5727 155.992 40.0902V36.1136C155.992 34.2335 154.445 32.6528 152.514 32.6528Z" fill="#6B7280"/>
<path d="M164.898 40.972C165.897 40.972 166.828 40.606 167.544 40.0902C167.926 39.7574 167.993 39.225 167.727 38.859C167.394 38.4597 166.845 38.3931 166.479 38.6759C166.046 38.9921 165.497 39.2083 164.898 39.2083C163.551 39.2083 162.436 38.1102 162.436 36.829C162.436 35.5479 163.551 34.4332 164.898 34.4332C165.514 34.4332 166.046 34.6494 166.479 34.9656C166.862 35.265 167.394 35.1985 167.727 34.7992C167.993 34.4332 167.926 33.8675 167.544 33.5679C166.828 33.0189 165.897 32.6528 164.898 32.6528C162.602 32.6695 160.672 34.5164 160.672 36.829C160.672 39.1085 162.602 40.972 164.898 40.972Z" fill="#6B7280"/>
<path d="M175.99 40.972C177.172 40.972 178.153 40.6226 178.969 39.8739C179.351 39.5245 179.185 39.0254 178.969 38.7924C178.752 38.5262 178.07 38.4763 177.721 38.8423C177.305 39.1584 176.589 39.3082 175.99 39.2583C175.408 39.2083 174.742 38.9089 174.393 38.5096C174.094 38.2267 173.91 37.7941 173.827 37.4114H179.118C179.584 37.4114 179.933 37.1452 179.983 36.7459C180 36.7126 180 36.6294 180 36.5961C180 36.5629 180 36.5296 180 36.5129C179.867 34.2668 178.153 32.6528 175.99 32.6528C173.711 32.6528 171.947 34.5496 171.93 36.8125C171.947 39.0753 173.711 40.9554 175.99 40.972ZM175.99 34.2335C177.438 34.35 178.286 35.3316 178.453 35.9972H173.744C173.877 35.315 174.576 34.3 175.99 34.2335Z" fill="#6B7280"/>
</g>
<defs>
<clipPath id="clip0_1248_12464">
<rect width="180" height="44.0288" fill="white"/>
</clipPath>
</defs>
</svg>
